<svg width="191" height="170" viewBox="0 0 191 170" fill="none" xmlns="http://www.w3.org/2000/svg">
<g clip-path="url(#clip0_917_6860)">
<path d="M171.462 131.428H158.876V131.523H171.462V131.428Z" fill="#EBEBEB"/>
<path d="M126.364 132.459H123.061V132.554H126.364V132.459Z" fill="#EBEBEB"/>
<path d="M158.496 127.899H151.203V127.994H158.496V127.899Z" fill="#EBEBEB"/>
<path d="M36.8482 128.537H20.4348V128.632H36.8482V128.537Z" fill="#EBEBEB"/>
<path d="M42.6377 128.537H40.2312V128.632H42.6377V128.537Z" fill="#EBEBEB"/>
<path d="M86.0556 130.142H50.4587V130.237H86.0556V130.142Z" fill="#EBEBEB"/>
<path d="M91.0923 108.364H17.7147C16.5188 108.364 15.5457 107.391 15.5457 106.195V3.05081C15.5457 1.85495 16.5188 0.881775 17.7147 0.881775H91.0923C92.2878 0.881775 93.261 1.85495 93.261 3.05081V106.195C93.261 107.391 92.2878 108.364 91.0923 108.364ZM17.7147 0.977155C16.5709 0.977155 15.6407 1.90739 15.6407 3.05119V106.195C15.6407 107.339 16.5709 108.269 17.7147 108.269H91.0923C92.2357 108.269 93.166 107.339 93.166 106.195V3.05081C93.166 1.90739 92.2357 0.976775 91.0923 0.976775L17.7147 0.977155Z" fill="#EBEBEB"/>
<path d="M173.285 108.364H99.9069C98.7115 108.364 97.7383 107.391 97.7383 106.195V3.05081C97.7383 1.85495 98.7115 0.881775 99.9069 0.881775H173.285C174.481 0.881775 175.454 1.85495 175.454 3.05081V106.195C175.454 107.391 174.48 108.364 173.285 108.364ZM99.9069 0.977155C98.7635 0.977155 97.8333 1.90739 97.8333 3.05119V106.195C97.8333 107.339 98.7635 108.269 99.9069 108.269H173.285C174.428 108.269 175.359 107.339 175.359 106.195V3.05081C175.359 1.90739 174.428 0.976775 173.285 0.976775L99.9069 0.977155Z" fill="#EBEBEB"/>
<path d="M190.5 125.311H0.5V125.406H190.5V125.311Z" fill="#EBEBEB"/>
<path d="M153.812 63.2565C159.007 59.2099 165.702 58.5673 170.896 54.5207C168.577 52.2019 166.258 49.8832 163.939 47.5644C158.745 51.611 152.05 52.2536 146.856 56.3002C149.175 58.6186 151.494 60.9374 153.812 63.2565Z" fill="#F5F5F5"/>
<path d="M149.923 55.3278C153.885 53.0957 158.489 52.3718 162.418 50.0823C163.266 50.4919 164.288 50.6044 165.143 50.3137C166.31 51.4807 166.893 52.064 168.06 53.231C167.644 53.9606 167.531 54.757 167.828 55.4927C163.9 57.7822 159.296 58.5057 155.333 60.7382C154.485 60.329 153.463 60.2161 152.609 60.5068C151.442 59.3398 150.858 58.7565 149.691 57.5896C150.107 56.86 150.22 56.0635 149.923 55.3278Z" fill="#E6E6E6"/>
<path d="M156.512 56.2516C157.622 57.3616 159.571 57.8757 160.885 57.4197C162.2 56.9637 162.349 55.6786 161.239 54.5686C160.129 53.4586 158.18 52.9445 156.866 53.4001C155.552 53.8565 155.402 55.1416 156.512 56.2516Z" fill="#FAFAFA"/>
<path d="M148.752 19.4847C152.298 22.4631 153.117 27.3279 150.563 30.355L149.672 31.4114C147.128 34.4339 142.193 34.4669 138.651 31.4866C135.108 28.5063 134.29 23.6419 136.844 20.6144L137.734 19.5546C140.278 16.5325 145.207 16.5062 148.752 19.4847Z" fill="#E0E0E0"/>
<path d="M150.561 30.3557C153.105 27.3327 152.296 22.4649 148.753 19.4833C145.21 16.5017 140.276 16.5353 137.732 19.5584C135.187 22.5814 135.997 27.4492 139.54 30.4308C143.083 33.4124 148.017 33.3788 150.561 30.3557Z" fill="#F5F5F5"/>
<path d="M149.449 29.4186C151.551 26.9201 150.882 22.897 147.954 20.4327C145.026 17.9684 140.948 17.9961 138.845 20.4946C136.742 22.993 137.411 27.0161 140.339 29.4805C143.268 31.9448 147.346 31.9171 149.449 29.4186Z" fill="#E0E0E0"/>
<path d="M147.202 27.2059L147.962 28.0491L147.434 28.5271L146.681 27.6869C146.08 28.1878 145.325 28.4667 144.542 28.4773L144.143 27.4719C144.798 27.4757 145.438 27.2678 145.967 26.8791L144.608 25.3716C143.711 25.8094 142.699 26.2232 141.757 25.1767C141.065 24.4072 140.94 23.3067 141.842 22.2902L141.078 21.4367L141.605 20.9625L142.357 21.8026C142.85 21.404 143.447 21.1559 144.077 21.0879L144.491 22.0994C143.986 22.1636 143.503 22.346 143.081 22.6314L144.453 24.1575C145.352 23.7163 146.367 23.2824 147.31 24.3293C147.993 25.0767 148.105 26.1768 147.202 27.2059ZM143.773 24.4509L142.567 23.1053C142.223 23.4507 142.211 24.0055 142.539 24.3657C142.858 24.7378 143.285 24.6564 143.773 24.4509ZM146.535 25.1193C146.206 24.7518 145.773 24.8179 145.269 25.0425L146.47 26.3657C146.858 25.8789 146.831 25.4442 146.537 25.1159L146.535 25.1193Z" fill="#F5F5F5"/>
<path d="M166.656 81.9183C169.063 86.7359 167.688 92.3056 163.563 94.3545L162.123 95.0697C158.011 97.1187 152.731 94.8725 150.329 90.0548C147.927 85.2372 149.302 79.6675 153.428 77.6186L154.867 76.8988C158.979 74.8499 164.25 77.1006 166.656 81.9183Z" fill="#E0E0E0"/>
<path d="M163.556 94.3611C167.668 92.3117 169.055 86.7436 166.653 81.9242C164.252 77.1048 158.971 74.8592 154.859 76.9085C150.746 78.9578 149.359 84.526 151.761 89.3454C154.162 94.1648 159.443 96.4104 163.556 94.3611Z" fill="#F5F5F5"/>
<path d="M162.801 92.8495C166.199 91.1559 167.345 86.5538 165.36 82.5704C163.375 78.5871 159.011 76.7309 155.612 78.4245C152.214 80.1181 151.068 84.7202 153.053 88.7036C155.038 92.6869 159.402 94.5431 162.801 92.8495Z" fill="#E0E0E0"/>
<path d="M161.433 89.44L161.854 90.691L161.07 90.9566L160.655 89.7121C159.782 89.9686 158.846 89.9169 158.007 89.5662L158.045 88.3084C158.743 88.6158 159.522 88.6895 160.266 88.5193L159.514 86.283C158.353 86.3346 157.083 86.3088 156.561 84.7561C156.178 83.6154 156.554 82.3834 157.987 81.7157L157.565 80.4515L158.347 80.1889L158.762 81.4334C159.471 81.2358 160.223 81.2472 160.927 81.4657L160.901 82.7364C160.332 82.5715 159.733 82.5426 159.151 82.6521L159.909 84.9146C161.073 84.8595 162.356 84.8659 162.878 86.4186C163.261 87.5343 162.872 88.7594 161.433 89.44ZM159.047 84.9153L158.382 82.9219C157.856 83.1316 157.586 83.7176 157.77 84.2541C157.939 84.7987 158.431 84.9089 159.047 84.9153ZM161.685 86.9054C161.504 86.3609 161.011 86.2313 160.369 86.2377L161.041 88.2054C161.679 87.8649 161.851 87.3884 161.689 86.9024L161.685 86.9054Z" fill="#F5F5F5"/>
<path d="M58.287 25.0665L59.9206 25.8831C64.6026 28.2087 66.1636 34.5293 63.4375 39.9971C60.7114 45.4649 54.7184 48.014 50.052 45.6884L48.4184 44.8767C43.7364 42.5511 42.1758 36.2305 44.9068 30.7627C47.6375 25.2957 53.6202 22.7413 58.287 25.0665Z" fill="#E0E0E0"/>
<path d="M61.8025 39.1848C64.5281 33.7153 62.9541 27.3959 58.2868 25.0701C53.6196 22.7443 47.6265 25.2928 44.9009 30.7623C42.1753 36.2318 43.7494 42.5511 48.4166 44.8769C53.0839 47.2027 59.0769 44.6542 61.8025 39.1848Z" fill="#F5F5F5"/>
<path d="M60.336 38.455C62.5888 33.9342 61.288 28.7112 57.4307 26.789C53.5734 24.8668 48.6202 26.9734 46.3674 31.4941C44.1146 36.0148 45.4153 41.2379 49.2726 43.1601C53.1299 45.0823 58.0832 42.9757 60.336 38.455Z" fill="#E0E0E0"/>
<path d="M51.7012 39.5031L51.0355 40.8452L50.1926 40.4291L50.8584 39.0972C49.9517 38.6021 49.2426 37.8105 48.8501 36.8548L49.8905 35.8767C50.204 36.6839 50.7699 37.3678 51.5033 37.8276L52.6946 35.4295C51.7218 34.5399 50.7227 33.4994 51.55 31.8347C52.1588 30.6122 53.4489 29.9256 55.1345 30.5393L55.8109 29.1868L56.6485 29.6029L55.9827 30.9348C56.7108 31.346 57.3051 31.9582 57.6942 32.6984L56.6538 33.6971C56.3296 33.1084 55.8717 32.6038 55.3166 32.2249L54.1097 34.6493C55.0878 35.5389 56.1127 36.574 55.2854 38.2388C54.6975 39.4407 53.4021 40.1118 51.7012 39.5031ZM53.4177 33.9573L54.4844 31.8244C53.8935 31.5702 53.2068 31.824 52.9237 32.402C52.622 32.9743 52.9286 33.458 53.4177 33.9573ZM53.9379 37.6719C54.2294 37.0893 53.9379 36.5896 53.4177 36.08L52.3773 38.1974C53.1627 38.4368 53.6829 38.1921 53.9432 37.6719H53.9379Z" fill="#F5F5F5"/>
<path d="M42.2457 80.2106L43.5898 79.7625C47.4335 78.4698 51.7567 81.0808 53.2604 85.575C54.7641 90.0693 52.8751 94.7551 49.0401 96.0391L47.6991 96.4898C43.8554 97.7825 39.5321 95.1715 38.0311 90.6742C36.5301 86.1773 38.4108 81.4946 42.2457 80.2106Z" fill="#E0E0E0"/>
<path d="M47.7044 96.4937C51.5405 95.2093 53.4301 90.5239 51.925 86.0285C50.4199 81.5331 46.09 78.93 42.2539 80.2143C38.4179 81.4987 36.5282 86.1841 38.0333 90.6795C39.5385 95.175 43.8683 97.778 47.7044 96.4937Z" fill="#F5F5F5"/>
<path d="M47.2318 95.0814C50.4022 94.0199 51.9638 90.1473 50.7197 86.4316C49.4757 82.716 45.8971 80.5643 42.7268 81.6258C39.5564 82.6872 37.9948 86.5599 39.2389 90.2755C40.4829 93.9912 44.0615 96.1429 47.2318 95.0814Z" fill="#E0E0E0"/>
<path d="M46.5515 91.7417L46.9224 92.8433L46.2319 93.0774L45.8667 91.9815C45.098 92.2072 44.2749 92.162 43.5354 91.853L43.5696 90.7457C44.1841 91.0163 44.8696 91.0813 45.5244 90.9312L44.8624 88.9624C43.841 89.008 42.7222 88.9852 42.2628 87.6183C41.9261 86.614 42.2571 85.5294 43.5183 84.9416L43.1475 83.8286L43.8353 83.5975L44.2004 84.6935C44.8255 84.5194 45.4871 84.5293 46.1065 84.722L46.0837 85.8407C45.5829 85.6955 45.0551 85.6701 44.5428 85.7666L45.2105 87.7582C46.235 87.7095 47.3651 87.7152 47.8245 89.0821C48.1608 90.064 47.8184 91.1424 46.5515 91.7417ZM44.4512 87.7582L43.8664 86.0033C43.4028 86.188 43.1657 86.704 43.3272 87.176C43.4754 87.6556 43.909 87.7525 44.4512 87.7582ZM46.7742 89.5103C46.6142 89.0308 46.1806 88.9168 45.6156 88.9225L46.2061 90.6545C46.7681 90.3551 46.9193 89.9356 46.7768 89.5073L46.7742 89.5103Z" fill="#F5F5F5"/>
<path d="M31.2368 67.0527C40.8178 68.2428 48.425 74.5174 58.0063 75.7075C58.0063 70.8994 58.0063 66.0909 58.0063 61.2827C48.4254 60.0926 40.8181 53.818 31.2368 52.6279C31.2372 57.4364 31.2372 62.2445 31.2368 67.0527Z" fill="#F5F5F5"/>
<path d="M35.4253 54.7999C41.8481 56.5939 47.3714 60.6166 53.8189 62.3167C54.2737 63.6205 55.2161 64.797 56.404 65.3814C56.404 67.8012 56.404 69.0108 56.404 71.4306C55.2165 71.7559 54.2737 72.465 53.8189 73.5358C47.3718 71.8361 41.8481 67.813 35.4253 66.019C34.9705 64.7153 34.0281 63.5388 32.8406 62.9543C32.8406 60.5345 32.8406 59.325 32.8406 56.9051C34.0277 56.5798 34.9701 55.8708 35.4253 54.7999Z" fill="#E6E6E6"/>
<path d="M41.2988 62.5896C41.2988 64.8909 42.7865 67.4452 44.6219 68.3352C46.4573 69.2252 47.9446 68.0479 47.9446 65.7463C47.9446 63.4446 46.4569 60.8906 44.6219 60.0007C42.7865 59.1107 41.2988 60.2879 41.2988 62.5896Z" fill="#FAFAFA"/>
<path d="M67.4495 13.6608C71.4961 18.8554 72.1387 25.5498 76.1853 30.744C78.504 28.4253 80.8228 26.1065 83.1419 23.7878C79.0953 18.5932 78.4527 11.8987 74.4061 6.7041C72.0874 9.02324 69.7686 11.342 67.4495 13.6608Z" fill="#F5F5F5"/>
<path d="M75.378 9.77109C77.6101 13.7337 78.334 18.3374 80.6235 22.2663C80.2139 23.1144 80.1014 24.1362 80.3921 24.9909C79.2251 26.1578 78.6418 26.7411 77.4748 27.9081C76.7452 27.4924 75.9487 27.3795 75.213 27.6767C72.9235 23.7479 72.2 19.1438 69.9675 15.1815C70.3772 14.3334 70.4897 13.3116 70.199 12.4569C71.3659 11.29 71.9492 10.7067 73.1162 9.53967C73.8458 9.95577 74.6419 10.0683 75.378 9.77109Z" fill="#E6E6E6"/>
<path d="M74.4545 16.3606C73.3445 17.4706 72.8303 19.4197 73.2863 20.7341C73.7423 22.0485 75.0275 22.1978 76.1371 21.0882C77.2467 19.9786 77.7612 18.0292 77.3056 16.7148C76.8496 15.4004 75.5644 15.2507 74.4545 16.3606Z" fill="#FAFAFA"/>
<path d="M95.4996 142.266C136.191 142.266 169.177 140.34 169.177 137.963C169.177 135.587 136.191 133.661 95.4996 133.661C54.8085 133.661 21.8218 135.587 21.8218 137.963C21.8218 140.34 54.8085 142.266 95.4996 142.266Z" fill="#F5F5F5"/>
<path d="M147.171 81.1579C146.4 80.5142 145.639 79.8507 144.891 79.18L142.644 77.1656C142.275 76.8627 141.947 76.3235 141.886 75.8075C141.815 75.293 141.915 74.8731 142.033 74.5318C142.283 73.8493 142.644 73.3827 143.004 72.9415C143.743 72.0793 144.551 71.4185 145.451 70.8124L146.307 71.8137C145.695 72.5482 145.081 73.3432 144.623 74.1127C144.396 74.4912 144.213 74.8951 144.16 75.1809C144.131 75.3207 144.152 75.4153 144.169 75.4009C144.191 75.3857 144.146 75.3032 144.171 75.3165L144.781 75.7581L145.395 76.2247C145.802 76.5363 146.202 76.8521 146.596 77.1732C147.388 77.8127 148.16 78.4686 148.917 79.1507L147.171 81.1579Z" fill="#803E3C"/>
<path d="M148.631 81.8662C147.28 82.0645 144.154 78.8965 144.154 78.8965L146.297 76.444C146.297 76.444 147.978 77.4886 149.189 78.7566C150.431 80.0589 150.114 81.6484 148.631 81.8662Z" fill="#407BFF"/>
<path opacity="0.7" d="M148.631 81.8662C147.28 82.0645 144.154 78.8965 144.154 78.8965L146.297 76.444C146.297 76.444 147.978 77.4886 149.189 78.7566C150.431 80.0589 150.114 81.6484 148.631 81.8662Z" fill="white"/>
<path d="M145.164 71.3809L145.521 69.6549L147.077 70.8375C147.077 70.8375 146.666 72.3582 145.891 72.1131L145.164 71.3809Z" fill="#7F3E3B"/>
<path d="M146.712 68.3788L147.705 69.8498L147.077 70.8374L145.521 69.6549L146.712 68.3788Z" fill="#7F3E3B"/>
<path opacity="0.2" d="M148.044 80.1547C147.411 80.6913 145.996 80.2045 145.16 79.8408C146.147 80.7144 147.62 81.8685 148.501 81.8658C148.604 80.9162 148.648 79.6421 148.044 80.1547Z" fill="black"/>
<path d="M139.641 133.96L137.898 133.327L138.858 129.126L140.601 129.759L139.641 133.96Z" fill="#7F3E3B"/>
<path d="M153.391 136.275H151.54L151.015 131.99H152.866L153.391 136.275Z" fill="#7F3E3B"/>
<path d="M151.298 136.061H153.554C153.629 136.061 153.695 136.113 153.713 136.187L154.094 137.832C154.134 138.002 154.002 138.164 153.827 138.161C153.101 138.148 152.571 138.106 151.657 138.106C151.094 138.106 149.399 138.164 148.622 138.164C147.862 138.164 147.736 137.396 148.054 137.327C149.476 137.015 150.546 136.585 150.999 136.175C151.08 136.101 151.187 136.061 151.298 136.061Z" fill="#407BFF"/>
<path d="M137.834 132.972L139.814 133.397C139.889 133.413 139.942 133.478 139.944 133.553L139.972 135.238C139.975 135.413 139.816 135.543 139.645 135.504C138.934 135.338 137.91 135.075 137.012 134.883C135.962 134.657 135.311 134.445 134.08 134.181C133.336 134.022 133.283 133.227 133.609 133.225C135.091 133.22 135.988 133.51 137.368 133.019C137.518 132.966 137.678 132.939 137.834 132.972Z" fill="#407BFF"/>
<path opacity="0.2" d="M138.858 129.127L138.363 131.292L140.107 131.926L140.602 129.761L138.858 129.127Z" fill="black"/>
<path opacity="0.2" d="M152.866 131.991H151.015L151.286 134.2H153.137L152.866 131.991Z" fill="black"/>
<path d="M158.799 79.9905C157.988 81.9464 157.377 84.3465 156.903 86.2609C156.558 87.6616 156.289 89.0064 156.076 90.23C155.575 93.0975 155.372 95.3076 155.196 96.0421C153.773 95.7544 148.411 94.6695 145.488 94.0767C145.417 83.4519 148.614 78.4014 148.614 78.4014C148.614 78.4014 149.724 78.3269 150.992 78.4185C151.159 78.4295 151.329 78.4458 151.501 78.4648C152.613 78.5864 154.4 78.99 155.628 79.3001C155.886 79.3654 156.147 79.4388 156.399 79.514C157.684 79.8993 158.799 79.9905 158.799 79.9905Z" fill="#407BFF"/>
<path opacity="0.7" d="M158.799 79.9905C157.988 81.9464 157.377 84.3465 156.903 86.2609C156.558 87.6616 156.289 89.0064 156.076 90.23C155.575 93.0975 155.372 95.3076 155.196 96.0421C153.773 95.7544 148.411 94.6695 145.488 94.0767C145.417 83.4519 148.614 78.4014 148.614 78.4014C148.614 78.4014 149.724 78.3269 150.992 78.4185C151.159 78.4295 151.329 78.4458 151.501 78.4648C152.613 78.5864 154.4 78.99 155.628 79.3001C155.886 79.3654 156.147 79.4388 156.399 79.514C157.684 79.8993 158.799 79.9905 158.799 79.9905Z" fill="white"/>
<path d="M151.631 80.4822C151.25 81.2156 148.985 90.2767 148.372 92.2375C148.445 92.6745 148.539 93.1157 148.654 93.5611C148.966 93.1841 149.294 92.8106 149.639 92.4397C150.056 90.5272 151.66 81.4953 152.083 80.5518L151.631 80.4822Z" fill="#407BFF"/>
<path d="M151.618 81.0492L151.46 80.0699L152.173 79.9153L152.606 80.3154L151.618 81.0492Z" fill="#407BFF"/>
<path d="M156.113 74.5683C155.597 75.844 154.869 78.2254 155.627 79.3001C154.811 79.8636 153.688 80.2565 152.202 79.9221C151.065 79.666 151.161 78.8555 151.501 78.4644C153.049 78.4105 153.222 77.3039 153.163 76.2194L156.113 74.5683Z" fill="#7F3E3B"/>
<path d="M152.173 79.9153C152.173 79.9153 152.493 80.5559 152.889 81.2057C153.722 80.9656 155.701 80.2706 155.841 79.2693C155.804 78.9611 155.459 78.7065 155.459 78.7065C155.459 78.7065 154.128 79.5254 152.173 79.9153Z" fill="white"/>
<path d="M152.173 79.9153C152.173 79.9153 151.484 80.2695 150.969 80.7962C150.509 80.3052 151.203 78.5344 151.45 78.3748C151.945 78.1909 152.235 78.2851 152.235 78.2851C152.235 78.2851 151.358 79.5197 152.173 79.9153Z" fill="white"/>
<path opacity="0.2" d="M154.91 75.2421L153.165 76.2183C153.179 76.4752 153.18 76.7328 153.151 76.9768C153.732 77.0094 154.629 76.5458 154.803 75.9656C154.89 75.676 154.932 75.3895 154.91 75.2421Z" fill="black"/>
<path d="M152.744 69.949C152.24 70.4997 151.733 71.8779 152.836 71.8677C153.939 71.857 153.611 69.0025 152.744 69.949Z" fill="#263238"/>
<path d="M156.99 72.9909C156.316 74.6964 156.007 75.73 154.838 76.3277C153.079 77.2272 151.193 75.7064 151.345 73.8281C151.482 72.1374 152.562 69.6325 154.49 69.5128C156.389 69.3954 157.665 71.2855 156.99 72.9909Z" fill="#7F3E3B"/>
<path d="M153.21 70.6213C152.065 70.0497 151.706 68.4522 153.603 68.041C153.645 68.0319 153.688 68.0239 153.731 68.0171C154.16 67.9495 154.512 68.2641 154.579 68.6924C154.585 68.7285 154.594 68.7657 154.608 68.8037C154.803 68.6034 155.245 68.3192 155.789 68.2808C156.231 68.2497 156.557 68.6468 156.528 69.0891C156.509 69.3866 156.644 69.6758 157.02 69.6861C158.014 69.7131 159.17 70.4358 158.594 71.4348C159.434 72.4863 158.125 73.9459 156.268 74.0948C155.764 73.0757 156.579 71.5682 156.579 71.5682C155.645 71.5503 154.248 71.1392 153.21 70.6213Z" fill="#263238"/>
<path d="M158.316 71.4724C158.316 71.4724 159.163 71.3535 158.875 70.5566C159.51 71.0871 159.046 71.5762 158.316 71.4724Z" fill="#263238"/>
<path d="M158.142 71.6032C158.142 71.6032 158.964 71.3638 159.028 72.2089C159.389 71.4652 158.765 71.2091 158.142 71.6032Z" fill="#263238"/>
<path d="M157.188 74.6607C156.903 75.0635 156.458 75.2945 156.057 75.3534C155.454 75.4419 155.224 74.8803 155.452 74.3479C155.657 73.8687 156.219 73.2455 156.795 73.4006C157.364 73.5537 157.515 74.2005 157.188 74.6607Z" fill="#7F3E3B"/>
<path d="M137.852 130.653L140.803 131.724C140.803 131.724 143.11 121.57 144.335 115.941C144.708 114.229 145.458 111.874 146.346 109.366C147.466 106.205 148.803 102.805 149.882 100.146C151.021 97.3455 151.869 95.3691 151.869 95.3691L145.487 94.0768C145.487 94.0768 140.617 108.09 139.523 113.629C138.385 119.388 137.852 130.653 137.852 130.653Z" fill="#263238"/>
<path opacity="0.6" d="M146.346 109.365C147.467 106.205 148.804 102.804 149.883 100.145L149.389 98.6178C147.563 100.308 146.424 106.131 146.346 109.365Z" fill="black"/>
<path d="M148.93 94.774C148.93 94.774 147.79 110.752 147.721 116.182C147.646 122.127 150.426 133.772 150.426 133.772H153.815C153.815 133.772 152.462 123.265 152.912 117.375C153.416 110.788 155.194 96.0429 155.194 96.0429L148.93 94.774Z" fill="#263238"/>
<path d="M150.022 133.845H154.013L154.001 132.653L149.834 132.412L150.022 133.845Z" fill="#263238"/>
<path d="M137.457 130.615L140.992 131.842L141.377 130.701L137.511 129.293L137.457 130.615Z" fill="#263238"/>
<path d="M154.194 72.5889C154.148 72.7306 154.035 72.8203 153.943 72.7892C153.85 72.758 153.813 72.6178 153.859 72.476C153.905 72.3343 154.018 72.2446 154.11 72.2758C154.203 72.3069 154.24 72.4472 154.194 72.5889Z" fill="#263238"/>
<path d="M152.594 72.0497C152.548 72.1914 152.436 72.2811 152.343 72.25C152.251 72.2188 152.213 72.0786 152.26 71.9368C152.306 71.7951 152.418 71.7054 152.511 71.7366C152.603 71.7674 152.64 71.9076 152.594 72.0497Z" fill="#263238"/>
<path d="M153.08 72.2913C153.08 72.2913 152.493 72.9677 152.011 73.2295C152.186 73.5343 152.646 73.5704 152.646 73.5704L153.08 72.2913Z" fill="#630F0F"/>
<path d="M154.856 72.2374C154.826 72.2317 154.8 72.21 154.789 72.1789C154.662 71.8072 154.35 71.7221 154.347 71.7213C154.3 71.7092 154.272 71.6613 154.284 71.6142C154.295 71.5674 154.343 71.5393 154.39 71.5515C154.406 71.5557 154.797 71.6624 154.954 72.1234C154.97 72.1694 154.946 72.2191 154.9 72.2347C154.886 72.2397 154.87 72.2404 154.856 72.2374Z" fill="#263238"/>
<path d="M152.085 71.2657C152.069 71.2627 152.053 71.2547 152.04 71.2422C152.006 71.2084 152.004 71.1525 152.038 71.1179C152.374 70.7706 152.77 70.8493 152.788 70.8504C152.835 70.8599 152.866 70.9063 152.857 70.9538C152.848 71.0013 152.803 71.032 152.755 71.0225C152.739 71.0187 152.433 70.9621 152.163 71.2407C152.142 71.2631 152.113 71.2711 152.085 71.2657Z" fill="#263238"/>
<path d="M150.689 136.384C150.548 136.384 150.416 136.36 150.332 136.29C150.265 136.234 150.234 136.156 150.239 136.058C150.243 135.985 150.281 135.95 150.313 135.934C150.516 135.828 151.117 136.196 151.185 136.238C151.2 136.247 151.208 136.264 151.205 136.282C151.202 136.299 151.19 136.313 151.172 136.318C151.044 136.349 150.86 136.384 150.689 136.384ZM150.41 136.001C150.387 136.001 150.368 136.004 150.354 136.012C150.342 136.018 150.328 136.029 150.326 136.063C150.322 136.133 150.343 136.185 150.387 136.223C150.49 136.307 150.731 136.319 151.045 136.256C150.835 136.135 150.552 136.001 150.41 136.001Z" fill="#407BFF"/>
<path d="M151.162 136.319C151.155 136.319 151.148 136.317 151.141 136.313C150.949 136.209 150.574 135.804 150.611 135.597C150.618 135.56 150.645 135.495 150.75 135.482C150.818 135.474 150.881 135.493 150.937 135.539C151.154 135.714 151.204 136.248 151.205 136.271C151.207 136.287 151.199 136.302 151.186 136.311C151.179 136.316 151.17 136.319 151.162 136.319ZM150.781 135.569C150.774 135.569 150.768 135.569 150.761 135.57C150.704 135.577 150.7 135.603 150.698 135.614C150.676 135.736 150.915 136.042 151.107 136.187C151.083 136.031 151.021 135.72 150.882 135.607C150.85 135.581 150.817 135.569 150.781 135.569Z" fill="#407BFF"/>
<path d="M137.604 133.184C137.602 133.184 137.6 133.184 137.598 133.184C137.294 133.18 136.76 133.139 136.597 132.921C136.548 132.855 136.535 132.779 136.559 132.695C136.574 132.645 136.607 132.611 136.654 132.597C136.9 132.519 137.552 133.047 137.626 133.107C137.64 133.118 137.646 133.138 137.64 133.156C137.634 133.171 137.62 133.182 137.604 133.184ZM136.697 132.677C136.691 132.678 136.685 132.679 136.68 132.68C136.66 132.686 136.65 132.698 136.643 132.72C136.627 132.777 136.635 132.826 136.667 132.869C136.759 132.991 137.053 133.073 137.467 133.093C137.208 132.894 136.844 132.659 136.697 132.677Z" fill="#407BFF"/>
<path d="M137.604 133.184C137.593 133.185 137.582 133.182 137.573 133.175C137.374 133.03 137.021 132.546 137.096 132.349C137.114 132.302 137.16 132.25 137.28 132.263C137.37 132.273 137.445 132.315 137.504 132.388C137.695 132.627 137.645 133.124 137.642 133.145C137.641 133.161 137.631 133.174 137.616 133.18C137.613 133.182 137.608 133.183 137.604 133.184ZM137.226 132.35C137.188 132.355 137.181 132.374 137.178 132.381C137.133 132.499 137.365 132.87 137.561 133.051C137.567 132.904 137.562 132.599 137.436 132.442C137.391 132.388 137.338 132.358 137.272 132.35C137.253 132.348 137.238 132.349 137.226 132.35Z" fill="#407BFF"/>
<path opacity="0.2" d="M157.665 81.0492L156.361 81.601V82.4255C156.361 82.4255 156.587 84.0911 157.299 84.6945C157.588 83.5887 157.92 82.4187 158.303 81.3125C157.95 81.1362 157.665 81.0492 157.665 81.0492Z" fill="black"/>
<path d="M157.943 80.486C158.475 80.4032 159.047 80.3264 159.594 80.2273C160.147 80.1406 160.696 80.0441 161.231 79.9293C161.76 79.8092 162.293 79.693 162.748 79.5353C162.972 79.4589 163.187 79.3745 163.311 79.3076C163.327 79.2955 163.37 79.2765 163.368 79.2765C163.365 79.2807 163.392 79.2613 163.367 79.2875C163.334 79.3247 163.312 79.3563 163.298 79.3821C163.244 79.4859 163.273 79.4733 163.284 79.4228C163.315 79.3099 163.335 79.0774 163.327 78.8406C163.322 78.6001 163.299 78.3398 163.267 78.0757C163.21 77.5433 163.105 76.9953 163.005 76.4409C162.901 75.8869 162.78 75.3294 162.647 74.7731C162.53 74.2134 162.386 73.651 162.26 73.0981L163.493 72.6326C163.772 73.1699 164.006 73.7076 164.248 74.2536C164.474 74.8035 164.691 75.3594 164.892 75.9272C165.097 76.4949 165.267 77.0782 165.417 77.6904C165.487 77.9985 165.549 78.3143 165.592 78.6533C165.631 78.9953 165.668 79.3487 165.608 79.8112C165.569 80.046 165.521 80.32 165.311 80.6707C165.258 80.7577 165.192 80.8474 165.109 80.9375C165.035 81.0173 165.003 81.042 164.947 81.0959C164.84 81.1978 164.756 81.2529 164.658 81.3292C164.294 81.5812 163.975 81.7351 163.658 81.8715C163.029 82.1349 162.435 82.3207 161.835 82.4738C160.636 82.7816 159.476 82.9963 158.254 83.127L157.943 80.486Z" fill="#803E3C"/>
<path d="M156.853 82.9161C157.933 83.74 161.875 82.8899 161.875 82.8899L161.221 79.4882C161.221 79.4882 159.392 79.6219 157.714 80.1064C155.886 80.6346 155.545 81.9183 156.853 82.9161Z" fill="#407BFF"/>
<path opacity="0.7" d="M156.853 82.9161C157.933 83.74 161.875 82.8899 161.875 82.8899L161.221 79.4882C161.221 79.4882 159.392 79.6219 157.714 80.1064C155.886 80.6346 155.545 81.9183 156.853 82.9161Z" fill="white"/>
<path d="M163.699 73.0578L163.831 71.2665L161.707 72.0747C161.707 72.0747 161.934 73.6213 162.771 73.5856L163.699 73.0578Z" fill="#7F3E3B"/>
<path d="M163.013 70.0421L161.288 70.7919L161.706 72.0747L163.831 71.2665L163.013 70.0421Z" fill="#7F3E3B"/>
<path d="M152.271 74.1853C152.271 74.1853 152.709 74.1218 153.905 74.2301C153.721 74.5915 153.424 74.8731 152.812 74.8119C152.2 74.7503 152.271 74.1853 152.271 74.1853Z" fill="white"/>
<path d="M83.5676 23.4055H87.9638L94.9345 101.872H90.5383C88.5102 101.872 86.7204 100.228 86.5403 98.1998L80.2217 27.0771C80.0419 25.0494 81.5399 23.4055 83.5676 23.4055Z" fill="#407BFF"/>
<path d="M139.841 101.872H91.8404C89.5683 101.872 87.5657 100.03 87.367 97.7582L81.222 27.519C81.0233 25.247 82.7036 23.4055 84.9757 23.4055H132.977C135.249 23.4055 137.251 25.247 137.45 27.519L143.595 97.7582C143.794 100.03 142.113 101.872 139.841 101.872Z" fill="#407BFF"/>
<path opacity="0.5" d="M139.841 101.872H91.8404C89.5683 101.872 87.5657 100.03 87.367 97.7582L81.222 27.519C81.0233 25.247 82.7036 23.4055 84.9757 23.4055H132.977C135.249 23.4055 137.251 25.247 137.45 27.519L143.595 97.7582C143.794 100.03 142.113 101.872 139.841 101.872Z" fill="white"/>
<path opacity="0.2" d="M92.3183 92.906H139.337L133.392 25.991H86.3735L92.3183 92.906Z" fill="black"/>
<path d="M94.3741 91.9902H141.393L133.392 25.991H86.3735L94.3741 91.9902Z" fill="#407BFF"/>
<path opacity="0.8" d="M94.3741 91.9902H141.393L133.392 25.991H86.3735L94.3741 91.9902Z" fill="white"/>
<path d="M130.507 44.2592H101.095C100.758 44.2592 100.461 43.9859 100.431 43.6485C100.402 43.3114 100.651 43.0378 100.988 43.0378H130.4C130.738 43.0378 131.035 43.3111 131.064 43.6485C131.094 43.9856 130.844 44.2592 130.507 44.2592Z" fill="#263238"/>
<path d="M129.589 47.7194H96.2081C95.8711 47.7194 95.5735 47.4462 95.5439 47.1088C95.5143 46.7717 95.7639 46.4981 96.101 46.4981H129.482C129.819 46.4981 130.117 46.7713 130.146 47.1088C130.176 47.4462 129.926 47.7194 129.589 47.7194Z" fill="#263238"/>
<path d="M131.113 51.1797H96.5105C96.1734 51.1797 95.8759 50.9065 95.8466 50.569C95.817 50.232 96.0666 49.9584 96.4037 49.9584H131.006C131.343 49.9584 131.641 50.2316 131.67 50.569C131.7 50.9065 131.45 51.1797 131.113 51.1797Z" fill="#263238"/>
<path d="M127.142 54.64H96.8138C96.4768 54.64 96.1792 54.3667 96.1496 54.0293C96.12 53.6922 96.3696 53.4186 96.7067 53.4186H127.034C127.372 53.4186 127.669 53.6919 127.698 54.0293C127.728 54.3664 127.479 54.64 127.142 54.64Z" fill="#263238"/>
<path d="M131.718 58.1003H102.306C101.969 58.1003 101.671 57.8271 101.642 57.4896C101.612 57.1522 101.862 56.879 102.199 56.879H131.611C131.948 56.879 132.245 57.1522 132.275 57.4896C132.305 57.8271 132.055 58.1003 131.718 58.1003Z" fill="#263238"/>
<path d="M130.495 61.5605H97.4189C97.0819 61.5605 96.7843 61.2873 96.7551 60.9499C96.7254 60.6128 96.9751 60.3392 97.3122 60.3392H130.388C130.725 60.3392 131.022 60.6125 131.052 60.9499C131.082 61.287 130.832 61.5605 130.495 61.5605Z" fill="#263238"/>
<path d="M132.324 65.0205H97.7213C97.3843 65.0205 97.0867 64.7472 97.0571 64.4098C97.0274 64.0727 97.2771 63.7991 97.6142 63.7991H132.217C132.554 63.7991 132.851 64.0724 132.88 64.4098C132.91 64.7472 132.661 65.0205 132.324 65.0205Z" fill="#263238"/>
<path d="M130.184 68.4811H98.0239C97.6869 68.4811 97.3893 68.2079 97.3601 67.8704C97.3304 67.533 97.5801 67.2598 97.9171 67.2598H130.077C130.414 67.2598 130.712 67.533 130.741 67.8704C130.77 68.2075 130.521 68.4811 130.184 68.4811Z" fill="#263238"/>
<g opacity="0.3">
<path d="M130.507 44.2592H101.095C100.758 44.2592 100.461 43.9859 100.431 43.6485C100.402 43.3114 100.651 43.0378 100.988 43.0378H130.4C130.738 43.0378 131.035 43.3111 131.064 43.6485C131.094 43.9856 130.844 44.2592 130.507 44.2592Z" fill="white"/>
<path d="M129.589 47.7194H96.2081C95.8711 47.7194 95.5735 47.4462 95.5439 47.1088C95.5143 46.7717 95.7639 46.4981 96.101 46.4981H129.482C129.819 46.4981 130.117 46.7713 130.146 47.1088C130.176 47.4462 129.926 47.7194 129.589 47.7194Z" fill="white"/>
<path d="M131.113 51.1797H96.5105C96.1734 51.1797 95.8759 50.9065 95.8466 50.569C95.817 50.232 96.0666 49.9584 96.4037 49.9584H131.006C131.343 49.9584 131.641 50.2316 131.67 50.569C131.7 50.9065 131.45 51.1797 131.113 51.1797Z" fill="white"/>
<path d="M127.142 54.64H96.8138C96.4768 54.64 96.1792 54.3667 96.1496 54.0293C96.12 53.6922 96.3696 53.4186 96.7067 53.4186H127.034C127.372 53.4186 127.669 53.6919 127.698 54.0293C127.728 54.3664 127.479 54.64 127.142 54.64Z" fill="white"/>
<path d="M131.718 58.1003H102.306C101.969 58.1003 101.671 57.8271 101.642 57.4896C101.612 57.1522 101.862 56.879 102.199 56.879H131.611C131.948 56.879 132.245 57.1522 132.275 57.4896C132.305 57.8271 132.055 58.1003 131.718 58.1003Z" fill="white"/>
<path d="M130.495 61.5605H97.4189C97.0819 61.5605 96.7843 61.2873 96.7551 60.9499C96.7254 60.6128 96.9751 60.3392 97.3122 60.3392H130.388C130.725 60.3392 131.022 60.6125 131.052 60.9499C131.082 61.287 130.832 61.5605 130.495 61.5605Z" fill="white"/>
<path d="M132.324 65.0205H97.7213C97.3843 65.0205 97.0867 64.7472 97.0571 64.4098C97.0274 64.0727 97.2771 63.7991 97.6142 63.7991H132.217C132.554 63.7991 132.851 64.0724 132.88 64.4098C132.91 64.7472 132.661 65.0205 132.324 65.0205Z" fill="white"/>
<path d="M130.184 68.4811H98.0239C97.6869 68.4811 97.3893 68.2079 97.3601 67.8704C97.3304 67.533 97.5801 67.2598 97.9171 67.2598H130.077C130.414 67.2598 130.712 67.533 130.741 67.8704C130.77 68.2075 130.521 68.4811 130.184 68.4811Z" fill="white"/>
</g>
<path d="M103.228 33.7617H104.128L104.405 36.9187H106.355L106.42 37.6525H103.569L103.228 33.7617Z" fill="#263238"/>
<path d="M107.634 37.4579C107.295 37.2839 107.02 37.0437 106.81 36.7382C106.6 36.4323 106.478 36.0888 106.444 35.7069C106.411 35.3257 106.473 34.9818 106.629 34.6759C106.786 34.37 107.019 34.1302 107.328 33.9558C107.637 33.7822 107.993 33.6948 108.397 33.6948C108.801 33.6948 109.172 33.7822 109.509 33.9558C109.847 34.1306 110.121 34.37 110.334 34.6759C110.546 34.9818 110.669 35.3253 110.702 35.7069C110.735 36.0888 110.673 36.4323 110.514 36.7382C110.355 37.0433 110.123 37.2839 109.816 37.4579C109.509 37.6319 109.153 37.719 108.749 37.719C108.345 37.719 107.974 37.6319 107.634 37.4579ZM109.291 36.794C109.467 36.688 109.599 36.5406 109.688 36.3521C109.777 36.1632 109.811 35.9482 109.79 35.7072C109.769 35.4667 109.698 35.2516 109.575 35.0628C109.453 34.8735 109.295 34.7261 109.1 34.6208C108.906 34.5148 108.694 34.4624 108.464 34.4624C108.234 34.4624 108.031 34.5148 107.855 34.6208C107.679 34.7261 107.546 34.8735 107.458 35.0628C107.369 35.2516 107.334 35.4667 107.356 35.7072C107.377 35.9482 107.448 36.1632 107.57 36.3521C107.692 36.5406 107.851 36.688 108.045 36.794C108.24 36.8993 108.452 36.9525 108.682 36.9525C108.911 36.9525 109.115 36.8993 109.291 36.794Z" fill="#263238"/>
<path d="M113.983 36.8188H112.177L111.905 37.6525H110.982L112.376 33.7617H113.265L115.345 37.6525H114.4L113.983 36.8188ZM113.64 36.1348L112.892 34.6452L112.406 36.1348H113.64Z" fill="#263238"/>
<path d="M118.98 33.7617L119.32 37.6525H118.581L116.435 35.2904L116.641 37.6525H115.752L115.412 33.7617H116.156L118.297 36.1241L118.091 33.7617H118.98Z" fill="#263238"/>
<g opacity="0.3">
<path d="M103.228 33.7617H104.128L104.405 36.9187H106.355L106.42 37.6525H103.569L103.228 33.7617Z" fill="white"/>
<path d="M107.634 37.4579C107.295 37.2839 107.02 37.0437 106.81 36.7382C106.6 36.4323 106.478 36.0888 106.444 35.7069C106.411 35.3257 106.473 34.9818 106.629 34.6759C106.786 34.37 107.019 34.1302 107.328 33.9558C107.637 33.7822 107.993 33.6948 108.397 33.6948C108.801 33.6948 109.172 33.7822 109.509 33.9558C109.847 34.1306 110.121 34.37 110.334 34.6759C110.546 34.9818 110.669 35.3253 110.702 35.7069C110.735 36.0888 110.673 36.4323 110.514 36.7382C110.355 37.0433 110.123 37.2839 109.816 37.4579C109.509 37.6319 109.153 37.719 108.749 37.719C108.345 37.719 107.974 37.6319 107.634 37.4579ZM109.291 36.794C109.467 36.688 109.599 36.5406 109.688 36.3521C109.777 36.1632 109.811 35.9482 109.79 35.7072C109.769 35.4667 109.698 35.2516 109.575 35.0628C109.453 34.8735 109.295 34.7261 109.1 34.6208C108.906 34.5148 108.694 34.4624 108.464 34.4624C108.234 34.4624 108.031 34.5148 107.855 34.6208C107.679 34.7261 107.546 34.8735 107.458 35.0628C107.369 35.2516 107.334 35.4667 107.356 35.7072C107.377 35.9482 107.448 36.1632 107.57 36.3521C107.692 36.5406 107.851 36.688 108.045 36.794C108.24 36.8993 108.452 36.9525 108.682 36.9525C108.911 36.9525 109.115 36.8993 109.291 36.794Z" fill="white"/>
<path d="M113.983 36.8188H112.177L111.905 37.6525H110.982L112.376 33.7617H113.265L115.345 37.6525H114.4L113.983 36.8188ZM113.64 36.1348L112.892 34.6452L112.406 36.1348H113.64Z" fill="white"/>
<path d="M118.98 33.7617L119.32 37.6525H118.581L116.435 35.2904L116.641 37.6525H115.752L115.412 33.7617H116.156L118.297 36.1241L118.091 33.7617H118.98Z" fill="white"/>
</g>
<path d="M131.87 87.2071H121.549C121.212 87.2071 120.914 86.9339 120.885 86.5964C120.856 86.259 121.105 85.9858 121.442 85.9858H131.763C132.101 85.9858 132.398 86.259 132.427 86.5964C132.457 86.9335 132.208 87.2071 131.87 87.2071Z" fill="#263238"/>
<path d="M120.798 85.0947L120.798 85.0939C120.711 84.9815 120.725 84.8295 120.831 84.7523C121.561 84.2146 122.368 83.585 123.123 82.9538C123.3 81.7959 124.08 80.3124 124.872 79.6227C125.465 79.1063 125.906 79.1697 126.171 79.3134C126.355 79.4137 126.471 79.5767 126.496 79.7728C126.592 80.5187 125.08 81.9909 123.589 83.2452C123.565 83.49 123.581 83.7009 123.644 83.857C123.71 84.0193 123.819 84.0942 124.009 84.1059C124.843 84.1599 125.299 83.718 125.739 83.2905C126.234 82.8105 126.746 82.3135 127.677 82.7721C128.499 83.1765 128.519 83.5831 128.473 83.9323C128.467 83.9729 128.459 84.0349 128.464 84.0539C128.468 84.0539 128.57 84.1504 129.207 84.231C130.631 84.4134 131.398 83.379 131.656 82.9397C131.718 82.8345 131.853 82.801 131.97 82.8607C132.106 82.9298 132.162 83.0948 132.09 83.2164C131.782 83.7385 130.88 84.9355 129.188 84.7219C128.551 84.6414 128.24 84.5312 128.079 84.3282C127.938 84.1496 127.962 83.9627 127.98 83.8263C128.006 83.6306 128.026 83.4763 127.49 83.2122C126.902 82.9226 126.609 83.1662 126.102 83.6594C125.639 84.1082 125.064 84.6672 124.021 84.5996C123.627 84.5741 123.331 84.364 123.186 84.0064C123.143 83.9 123.114 83.7799 123.099 83.6499C122.303 84.2982 121.566 84.8515 121.148 85.1589C121.041 85.2372 120.885 85.2076 120.798 85.0947ZM125.812 79.7063C125.599 79.7063 125.359 79.8838 125.217 80.0073C124.624 80.5237 124.066 81.5113 123.779 82.3921C125.065 81.2654 126.058 80.2212 126.003 79.7929C126 79.7736 125.999 79.7629 125.964 79.7435C125.916 79.7177 125.864 79.7063 125.812 79.7063Z" fill="#263238"/>
<g opacity="0.3">
<path d="M131.87 87.2071H121.549C121.212 87.2071 120.914 86.9339 120.885 86.5964C120.856 86.259 121.105 85.9858 121.442 85.9858H131.763C132.101 85.9858 132.398 86.259 132.427 86.5964C132.457 86.9335 132.208 87.2071 131.87 87.2071Z" fill="white"/>
<path d="M120.798 85.0947L120.798 85.0939C120.711 84.9815 120.725 84.8295 120.831 84.7523C121.561 84.2146 122.368 83.585 123.123 82.9538C123.3 81.7959 124.08 80.3124 124.872 79.6227C125.465 79.1063 125.906 79.1697 126.171 79.3134C126.355 79.4137 126.471 79.5767 126.496 79.7728C126.592 80.5187 125.08 81.9909 123.589 83.2452C123.565 83.49 123.581 83.7009 123.644 83.857C123.71 84.0193 123.819 84.0942 124.009 84.1059C124.843 84.1599 125.299 83.718 125.739 83.2905C126.234 82.8105 126.746 82.3135 127.677 82.7721C128.499 83.1765 128.519 83.5831 128.473 83.9323C128.467 83.9729 128.459 84.0349 128.464 84.0539C128.468 84.0539 128.57 84.1504 129.207 84.231C130.631 84.4134 131.398 83.379 131.656 82.9397C131.718 82.8345 131.853 82.801 131.97 82.8607C132.106 82.9298 132.162 83.0948 132.09 83.2164C131.782 83.7385 130.88 84.9355 129.188 84.7219C128.551 84.6414 128.24 84.5312 128.079 84.3282C127.938 84.1496 127.962 83.9627 127.98 83.8263C128.006 83.6306 128.026 83.4763 127.49 83.2122C126.902 82.9226 126.609 83.1662 126.102 83.6594C125.639 84.1082 125.064 84.6672 124.021 84.5996C123.627 84.5741 123.331 84.364 123.186 84.0064C123.143 83.9 123.114 83.7799 123.099 83.6499C122.303 84.2982 121.566 84.8515 121.148 85.1589C121.041 85.2372 120.885 85.2076 120.798 85.0947ZM125.812 79.7063C125.599 79.7063 125.359 79.8838 125.217 80.0073C124.624 80.5237 124.066 81.5113 123.779 82.3921C125.065 81.2654 126.058 80.2212 126.003 79.7929C126 79.7736 125.999 79.7629 125.964 79.7435C125.916 79.7177 125.864 79.7063 125.812 79.7063Z" fill="white"/>
</g>
<path d="M119.979 81.4387C118.699 81.4387 117.51 80.4686 117.26 79.1671L117.166 78.6795C116.898 77.2884 117.801 76.0381 119.18 75.8918L131.873 74.5455C132.541 74.4741 133.219 74.6705 133.783 75.0965C134.347 75.5229 134.728 76.1286 134.858 76.8027L134.952 77.2903C135.082 77.964 134.944 78.6252 134.564 79.1519C134.183 79.6782 133.607 80.0073 132.939 80.0779L120.245 81.4247C120.156 81.4338 120.067 81.4387 119.979 81.4387ZM132.181 74.9859C132.107 74.9859 132.033 74.9897 131.96 74.9977L119.266 76.344C118.718 76.4022 118.245 76.672 117.933 77.1044C117.621 77.5365 117.508 78.0791 117.614 78.632L117.708 79.1196C117.928 80.2611 119.028 81.0891 120.158 80.9721L132.851 79.6253C133.399 79.5672 133.873 79.2974 134.185 78.8653C134.497 78.4333 134.61 77.8907 134.503 77.3378L134.41 76.8502C134.303 76.2973 133.99 75.8003 133.527 75.4503C133.126 75.147 132.656 74.9859 132.181 74.9859Z" fill="#407BFF"/>
<path d="M119.995 79.0957L119.03 79.1979L118.918 79.6771L118.651 79.7056L119.12 77.7854L119.377 77.7581L120.555 79.5034L120.283 79.5323L119.995 79.0957ZM119.864 78.8958L119.299 78.0393L119.08 78.979L119.864 78.8958Z" fill="#407BFF"/>
<path d="M121.768 77.6782C121.925 77.7774 122.023 77.9264 122.061 78.1255C122.099 78.3246 122.062 78.488 121.949 78.6157C121.836 78.7434 121.662 78.8198 121.426 78.8448L120.978 78.8923L121.084 79.4475L120.825 79.4749L120.472 77.6421L121.18 77.5669C121.416 77.5422 121.612 77.5794 121.768 77.6782ZM121.731 78.4721C121.804 78.3923 121.827 78.2859 121.802 78.1532C121.776 78.0206 121.714 77.9233 121.613 77.8618C121.513 77.8002 121.381 77.7782 121.217 77.7957L120.776 77.8424L120.934 78.6647L121.375 78.618C121.539 78.6005 121.658 78.5519 121.731 78.4721Z" fill="#407BFF"/>
<path d="M123.615 77.4826C123.772 77.5817 123.869 77.7307 123.908 77.9298C123.946 78.1289 123.909 78.2923 123.796 78.4196C123.683 78.5477 123.508 78.6237 123.273 78.6488L122.824 78.6963L122.931 79.2515L122.672 79.2788L122.319 77.4461L123.027 77.3709C123.263 77.3462 123.458 77.3834 123.615 77.4826ZM123.578 78.276C123.651 78.1962 123.674 78.0898 123.649 77.9572C123.623 77.8246 123.56 77.7273 123.46 77.6657C123.36 77.6042 123.228 77.5821 123.063 77.5996L122.622 77.6463L122.781 78.4687L123.222 78.4219C123.386 78.4044 123.505 78.3558 123.578 78.276Z" fill="#407BFF"/>
<path d="M125.733 78.9543L125.233 78.4329C125.185 78.4417 125.148 78.4474 125.12 78.4504L124.671 78.4979L124.779 79.0554L124.519 79.0831L124.166 77.25L124.875 77.1747C125.11 77.1497 125.306 77.1869 125.462 77.2861C125.619 77.3853 125.717 77.5342 125.755 77.7333C125.782 77.8747 125.771 77.9986 125.721 78.1054C125.671 78.2121 125.586 78.295 125.467 78.3543L126.016 78.9239L125.733 78.9543ZM125.425 78.0814C125.497 78.0009 125.521 77.8941 125.496 77.7615C125.47 77.6288 125.407 77.5316 125.307 77.47C125.207 77.4084 125.074 77.3864 124.91 77.4039L124.469 77.4506L124.628 78.2756L125.069 78.2289C125.234 78.211 125.352 78.162 125.425 78.0814Z" fill="#407BFF"/>
<path d="M126.71 78.7479C126.548 78.6822 126.411 78.5826 126.299 78.4481C126.188 78.314 126.115 78.1586 126.081 77.9822C126.047 77.8059 126.058 77.6418 126.115 77.4898C126.171 77.3378 126.265 77.2135 126.396 77.1166C126.528 77.0201 126.685 76.9619 126.868 76.9422C127.05 76.9228 127.222 76.9464 127.385 77.0117C127.547 77.0775 127.684 77.177 127.794 77.3104C127.904 77.4438 127.977 77.6 128.011 77.7778C128.045 77.956 128.035 78.1202 127.979 78.2714C127.923 78.4227 127.83 78.5465 127.699 78.6431C127.567 78.74 127.411 78.7977 127.229 78.8171C127.046 78.8365 126.873 78.8137 126.71 78.7479ZM127.526 78.4546C127.621 78.382 127.689 78.2889 127.729 78.1753C127.77 78.0613 127.777 77.9382 127.752 77.8055C127.727 77.6729 127.673 77.5563 127.59 77.4556C127.508 77.3549 127.408 77.2792 127.29 77.2295C127.172 77.1797 127.047 77.1618 126.913 77.1759C126.78 77.1899 126.666 77.2333 126.569 77.3058C126.473 77.3784 126.404 77.4715 126.363 77.5855C126.323 77.6991 126.315 77.8226 126.341 77.9553C126.366 78.0879 126.42 78.2045 126.502 78.3056C126.584 78.4063 126.685 78.4816 126.805 78.5313C126.925 78.5807 127.051 78.5986 127.185 78.5845C127.318 78.5701 127.432 78.5268 127.526 78.4546Z" fill="#407BFF"/>
<path d="M129.751 76.658L129.308 78.5754L129.051 78.6028L127.899 76.8548L128.179 76.8252L129.122 78.2616L129.491 76.6861L129.751 76.658Z" fill="#407BFF"/>
<path d="M131.609 78.0985L131.653 78.3261L130.335 78.466L129.982 76.6332L131.264 76.4972L131.308 76.7248L130.285 76.8331L130.394 77.3963L131.304 77.2998L131.347 77.5224L130.437 77.619L130.551 78.2106L131.609 78.0985Z" fill="#407BFF"/>
<path d="M131.721 76.4489L132.486 76.3676C132.678 76.3471 132.856 76.3676 133.02 76.4288C133.183 76.49 133.319 76.5854 133.428 76.7157C133.537 76.8457 133.609 77.0007 133.643 77.1804C133.678 77.3602 133.667 77.524 133.612 77.6714C133.556 77.8188 133.462 77.9389 133.328 78.0313C133.194 78.124 133.031 78.1802 132.839 78.2007L132.074 78.2821L131.721 76.4489ZM132.779 77.9746C132.926 77.9591 133.05 77.9165 133.151 77.847C133.251 77.7778 133.322 77.6877 133.362 77.5775C133.403 77.4673 133.41 77.3438 133.384 77.2078C133.358 77.0718 133.304 76.9547 133.224 76.8574C133.143 76.7598 133.042 76.6883 132.919 76.6427C132.796 76.5971 132.661 76.5819 132.515 76.5975L132.024 76.6496L132.29 78.0271L132.779 77.9746Z" fill="#407BFF"/>
<path d="M100.775 21.5641H104.457L105.054 28.281H101.372C100.13 28.281 99.0338 27.2744 98.9236 26.0322L98.7264 23.8126C98.6154 22.5708 99.5327 21.5641 100.775 21.5641Z" fill="#263238"/>
<path d="M117.162 28.2809H102.282C100.89 28.2809 99.6638 27.1531 99.5418 25.7615L99.3948 24.0831C99.2732 22.6919 100.302 21.5637 101.694 21.5637H116.574C117.965 21.5637 119.192 22.6915 119.314 24.0831L119.461 25.7615C119.583 27.1531 118.553 28.2809 117.162 28.2809Z" fill="#263238"/>
<path opacity="0.5" d="M117.162 28.2809H102.282C100.89 28.2809 99.6638 27.1531 99.5418 25.7615L99.3948 24.0831C99.2732 22.6919 100.302 21.5637 101.694 21.5637H116.574C117.965 21.5637 119.192 22.6915 119.314 24.0831L119.461 25.7615C119.583 27.1531 118.553 28.2809 117.162 28.2809Z" fill="white"/>
<path d="M117.048 25.635C117.08 26.0005 116.809 26.2965 116.444 26.2965C116.078 26.2965 115.756 26.0005 115.724 25.635C115.693 25.2698 115.963 24.9734 116.328 24.9734C116.694 24.9734 117.016 25.2694 117.048 25.635Z" fill="#263238"/>
<path d="M103.257 25.635C103.289 26.0005 103.019 26.2965 102.654 26.2965C102.288 26.2965 101.966 26.0005 101.934 25.635C101.902 25.2698 102.172 24.9734 102.538 24.9734C102.904 24.9734 103.225 25.2694 103.257 25.635Z" fill="#263238"/>
<path d="M82.8898 77.5111L82.544 76.8468C82.2833 76.346 82.4057 75.7315 82.8381 75.3686L83.4564 74.8496C83.6661 74.6732 83.8098 74.4308 83.8633 74.1621L84.3893 71.5181C84.4428 71.2494 84.4029 70.9705 84.2764 70.7273L83.7254 69.6686C83.4647 69.1678 83.5871 68.5533 84.0195 68.1904L85.0607 67.3161C85.2705 67.1397 85.4141 66.8973 85.4677 66.6286L86.317 62.359L83.3477 61.7684L80.3784 61.1779L79.5291 65.4476C79.4755 65.7163 79.5154 65.9952 79.6419 66.2384L80.2697 67.4445C80.5304 67.9453 80.408 68.5598 79.9756 68.9227L79.0613 69.6899C78.8515 69.8662 78.7079 70.1087 78.6543 70.3773L78.1284 73.0214C78.0748 73.29 78.1147 73.569 78.2412 73.8122L78.614 74.5285C78.8747 75.0293 78.7523 75.6438 78.3199 76.0067L77.7465 76.4881C77.314 76.851 77.1921 77.4655 77.4524 77.9663L77.6861 78.4151C77.9467 78.9159 77.8244 79.5304 77.3919 79.8933C76.9595 80.2562 76.8375 80.8707 77.0978 81.3715L77.8274 82.7741L79.1179 83.031L80.4088 83.2878L81.6198 82.2713C82.0523 81.9084 82.1746 81.294 81.9139 80.7931C81.6533 80.2923 81.7756 79.6778 82.2081 79.3149L82.5957 78.9897C83.0281 78.6264 83.1501 78.0115 82.8898 77.5111Z" fill="#263238"/>
<path opacity="0.6" d="M82.8898 77.5111L82.544 76.8468C82.2833 76.346 82.4057 75.7315 82.8381 75.3686L83.4564 74.8496C83.6661 74.6732 83.8098 74.4308 83.8633 74.1621L84.3893 71.5181C84.4428 71.2494 84.4029 70.9705 84.2764 70.7273L83.7254 69.6686C83.4647 69.1678 83.5871 68.5533 84.0195 68.1904L85.0607 67.3161C85.2705 67.1397 85.4141 66.8973 85.4677 66.6286L86.317 62.359L83.3477 61.7684L80.3784 61.1779L79.5291 65.4476C79.4755 65.7163 79.5154 65.9952 79.6419 66.2384L80.2697 67.4445C80.5304 67.9453 80.408 68.5598 79.9756 68.9227L79.0613 69.6899C78.8515 69.8662 78.7079 70.1087 78.6543 70.3773L78.1284 73.0214C78.0748 73.29 78.1147 73.569 78.2412 73.8122L78.614 74.5285C78.8747 75.0293 78.7523 75.6438 78.3199 76.0067L77.7465 76.4881C77.314 76.851 77.1921 77.4655 77.4524 77.9663L77.6861 78.4151C77.9467 78.9159 77.8244 79.5304 77.3919 79.8933C76.9595 80.2562 76.8375 80.8707 77.0978 81.3715L77.8274 82.7741L79.1179 83.031L80.4088 83.2878L81.6198 82.2713C82.0523 81.9084 82.1746 81.294 81.9139 80.7931C81.6533 80.2923 81.7756 79.6778 82.2081 79.3149L82.5957 78.9897C83.0281 78.6264 83.1501 78.0115 82.8898 77.5111Z" fill="white"/>
<path opacity="0.2" d="M85.0617 67.3161C85.2714 67.1397 85.4151 66.8973 85.4687 66.6286L86.318 62.359L84.8333 62.0637L83.3486 61.7684L80.3793 61.1779L79.7478 64.354L82.7171 64.9445L79.1196 83.0313L80.4105 83.2882L81.6215 82.2717C82.054 81.9088 82.1763 81.2944 81.9157 80.7935C81.655 80.2927 81.7773 79.6782 82.2098 79.3153L82.5974 78.99C83.0298 78.6271 83.1522 78.0127 82.8915 77.5118L82.5461 76.8476C82.2854 76.3468 82.4078 75.7323 82.8398 75.3694L83.4585 74.8503C83.6682 74.674 83.8119 74.4316 83.8654 74.1629L84.3914 71.5189C84.4449 71.2502 84.405 70.9713 84.2785 70.7281L83.7275 69.6694C83.4668 69.1686 83.5892 68.5541 84.0216 68.1912L85.0617 67.3161Z" fill="black"/>
<path d="M92.4456 56.5312C91.6598 55.5991 88.1832 53.8918 86.3143 53.5198C84.4455 53.1481 80.5801 53.3951 79.4971 53.9556C77.0917 55.2001 75.5964 59.6146 77.9745 61.6115C78.9366 62.4194 82.623 63.3295 84.284 63.7281C85.945 64.1267 89.6891 64.542 90.923 64.1871C93.9721 63.3097 94.1913 58.6015 92.4456 56.5312ZM88.3933 56.9113L83.0953 55.8575C82.7055 55.78 82.658 55.3012 83.0319 55.2077C84.1783 54.9204 85.3404 54.7798 86.0362 54.9185C86.7323 55.0569 87.7519 55.6314 88.7007 56.3356C89.0104 56.5647 88.7832 56.9888 88.3933 56.9113Z" fill="#263238"/>
<path opacity="0.6" d="M92.4456 56.5312C91.6598 55.5991 88.1832 53.8918 86.3143 53.5198C84.4455 53.1481 80.5801 53.3951 79.4971 53.9556C77.0917 55.2001 75.5964 59.6146 77.9745 61.6115C78.9366 62.4194 82.623 63.3295 84.284 63.7281C85.945 64.1267 89.6891 64.542 90.923 64.1871C93.9721 63.3097 94.1913 58.6015 92.4456 56.5312ZM88.3933 56.9113L83.0953 55.8575C82.7055 55.78 82.658 55.3012 83.0319 55.2077C84.1783 54.9204 85.3404 54.7798 86.0362 54.9185C86.7323 55.0569 87.7519 55.6314 88.7007 56.3356C89.0104 56.5647 88.7832 56.9888 88.3933 56.9113Z" fill="black"/>
<path d="M91.1521 56.2736C90.3662 55.3415 86.8896 53.6341 85.0208 53.2621C83.1519 52.8905 79.2866 53.1375 78.2036 53.698C75.7985 54.9425 74.3029 59.3569 76.6809 61.3538C77.6431 62.1617 81.3294 63.0718 82.9904 63.4704C84.651 63.8691 88.3955 64.2848 89.6294 63.9295C92.6785 63.0521 92.8978 58.3442 91.1521 56.2736ZM87.0997 56.654L81.8014 55.6003C81.4115 55.5227 81.364 55.0439 81.7379 54.9505C82.8844 54.6632 84.0464 54.5226 84.7422 54.6613C85.4384 54.7996 86.4579 55.3742 87.4068 56.0783C87.7165 56.3074 87.4892 56.7311 87.0997 56.654Z" fill="#263238"/>
<path d="M83.6674 56.4503C82.3264 59.6883 78.6579 61.2725 75.3983 60.0694C72.1318 58.8641 70.3564 55.1807 71.4751 51.8835C72.7329 48.1773 76.9916 46.1189 80.325 47.4994L80.8357 47.7111C81.0789 47.8118 81.1944 48.0907 81.0937 48.3339C80.993 48.5771 80.7141 48.6926 80.4709 48.5919L79.9602 48.3802C77.1569 47.219 73.5735 48.9392 72.4274 52.0507C71.4337 54.749 72.7443 57.8472 75.3667 59.0263C78.2342 60.3157 81.5919 58.9689 82.7862 56.0847C84.0873 52.9437 81.7819 50.6834 79.4126 49.7019L78.7119 49.4116C78.4687 49.3109 78.3531 49.0319 78.4538 48.7887C78.5545 48.5455 78.8335 48.43 79.0767 48.5307L79.7774 48.821C83.3767 50.3122 84.9401 53.378 83.6674 56.4503Z" fill="#263238"/>
<g opacity="0.5">
<path d="M83.6674 56.4503C82.3264 59.6883 78.6579 61.2725 75.3983 60.0694C72.1318 58.8641 70.3564 55.1807 71.4751 51.8835C72.7329 48.1773 76.9916 46.1189 80.325 47.4994L80.8357 47.7111C81.0789 47.8118 81.1944 48.0907 81.0937 48.3339C80.993 48.5771 80.7141 48.6926 80.4709 48.5919L79.9602 48.3802C77.1569 47.219 73.5735 48.9392 72.4274 52.0507C71.4337 54.749 72.7443 57.8472 75.3667 59.0263C78.2342 60.3157 81.5919 58.9689 82.7862 56.0847C84.0873 52.9437 81.7819 50.6834 79.4126 49.7019L78.7119 49.4116C78.4687 49.3109 78.3531 49.0319 78.4538 48.7887C78.5545 48.5455 78.8335 48.43 79.0767 48.5307L79.7774 48.821C83.3767 50.3122 84.9401 53.378 83.6674 56.4503Z" fill="white"/>
</g>
<path d="M79.1743 63.06C78.9258 61.1706 76.2947 57.7419 74.5341 57.0127C72.7736 56.2834 68.4887 56.8474 66.9771 58.0075C63.6194 60.5839 59.2247 69.6116 60.4988 73.6475C61.0141 75.2808 64.3748 77.0797 65.896 77.8667C67.4171 78.6537 71.1529 79.4433 72.6957 78.6996C76.5086 76.8631 79.7268 67.2556 79.1743 63.06ZM75.9884 60.56L70.9979 58.4928C70.6308 58.3408 70.7053 57.7947 71.1001 57.7514C72.3111 57.6195 73.5002 57.6553 74.1557 57.9266C74.8115 58.1983 75.6772 59.0137 76.4402 59.9634C76.6887 60.2731 76.3555 60.712 75.9884 60.56Z" fill="#263238"/>
<path opacity="0.6" d="M79.1743 63.06C78.9258 61.1706 76.2947 57.7419 74.5341 57.0127C72.7736 56.2834 68.4887 56.8474 66.9771 58.0075C63.6194 60.5839 59.2247 69.6116 60.4988 73.6475C61.0141 75.2808 64.3748 77.0797 65.896 77.8667C67.4171 78.6537 71.1529 79.4433 72.6957 78.6996C76.5086 76.8631 79.7268 67.2556 79.1743 63.06ZM75.9884 60.56L70.9979 58.4928C70.6308 58.3408 70.7053 57.7947 71.1001 57.7514C72.3111 57.6195 73.5002 57.6553 74.1557 57.9266C74.8115 58.1983 75.6772 59.0137 76.4402 59.9634C76.6887 60.2731 76.3555 60.712 75.9884 60.56Z" fill="black"/>
<path d="M77.9561 62.555C77.7072 60.6656 75.0764 57.2369 73.3159 56.5077C71.5553 55.7784 67.2705 56.3424 65.7588 57.5025C62.4011 60.0789 58.0064 69.1069 59.2806 73.1425C59.7962 74.7758 63.157 76.5747 64.6781 77.3617C66.1992 78.1487 69.935 78.9383 71.4778 78.1947C75.2904 76.3581 78.5086 66.7509 77.9561 62.555ZM74.7701 60.055L69.7796 57.9878C69.4125 57.8358 69.487 57.2897 69.8818 57.2468C71.0929 57.1149 72.2819 57.1506 72.9378 57.4219C73.5937 57.6936 74.4593 58.5091 75.2223 59.4587C75.4705 59.7684 75.1372 60.2073 74.7701 60.055Z" fill="#263238"/>
<path d="M74.4701 67.6618L64.6398 63.5901C63.9391 64.7377 63.2863 66.0574 62.7847 67.3509L73.1431 71.6415C73.6971 70.3738 74.1619 68.9758 74.4701 67.6618Z" fill="#407BFF"/>
<path d="M62.3983 68.4328C61.877 70.0444 61.6505 71.5173 61.9378 72.427C61.9708 72.5026 62.4048 73.3394 65.7807 75.0858C66.9792 75.7098 69.5609 76.0594 70.1568 75.7885C71.0049 75.3792 71.8854 74.1887 72.653 72.6804L62.3983 68.4328Z" fill="#407BFF"/>
<path d="M74.7021 66.5165C74.8667 65.5361 74.921 64.6492 74.8306 63.9629C74.6957 62.9388 72.7972 60.4646 71.843 60.0694C70.8888 59.6742 67.7968 60.0812 66.9779 60.7097C66.4356 61.1258 65.8512 61.7942 65.2766 62.6124L74.7021 66.5165Z" fill="#407BFF"/>
<path d="M69.8525 67.8072L67.8296 66.9692L67.2188 68.4438L69.2417 69.2817L69.8525 67.8072Z" fill="white"/>
<path d="M69.4354 68.0388L69.1611 67.9252L69.4621 67.1982C69.5681 66.9421 69.4461 66.6476 69.19 66.5416C68.9338 66.4356 68.6394 66.5575 68.5333 66.8137L68.2324 67.5406L67.958 67.427L68.259 66.7004C68.4277 66.2934 68.8962 66.0989 69.3036 66.2676C69.7109 66.4363 69.9051 66.9052 69.7364 67.3122L69.4354 68.0388Z" fill="white"/>
<path d="M67.8303 72.6828L65.8074 71.8448L65.1966 73.3194L67.2195 74.1573L67.8303 72.6828Z" fill="white"/>
<path d="M66.2133 72.4152L65.939 72.3016L66.2399 71.5747C66.4086 71.1677 66.8772 70.9735 67.2845 71.1422C67.6919 71.3109 67.8861 71.7799 67.7174 72.1868L67.443 72.0732C67.549 71.8171 67.427 71.5226 67.1705 71.4166C66.9144 71.3106 66.6199 71.4325 66.5139 71.6887L66.2133 72.4152Z" fill="white"/>
<path d="M72.7542 62.8199L71.9141 62.4718L71.211 61.3311L70.1584 63.8721L71.4622 63.5624L72.3024 63.9105L72.7542 62.8199Z" fill="white"/>
<path d="M69.074 63.383C68.6746 62.419 69.1341 61.309 70.0985 60.91L70.2498 61.2755C69.4871 61.5913 69.1234 62.4687 69.4396 63.2318L69.074 63.383Z" fill="white"/>
<path d="M69.9378 63.0254C69.8397 62.7887 69.8397 62.5284 69.9378 62.292C70.0358 62.0553 70.2201 61.8714 70.4565 61.7733L70.6077 62.1389C70.4686 62.1963 70.3607 62.3042 70.3034 62.4433C70.246 62.582 70.246 62.7347 70.3034 62.8738L69.9378 63.0254Z" fill="white"/>
<path d="M31.6952 130.28L55.517 131.062H108.21L130.947 129.905V124.941L128.034 120.73L120.106 117.929L110.047 120.73L106.057 124.495L60.9373 124.941L52.097 118.499L45.189 116.006L35.0605 118.625L32.5905 123.152L31.1335 127.715L31.6952 130.28Z" fill="#263238"/>
<path opacity="0.6" d="M31.6952 130.28L55.517 131.062H108.21L130.947 129.905V124.941L128.034 120.73L120.106 117.929L110.047 120.73L106.057 124.495L60.9373 124.941L52.097 118.499L45.189 116.006L35.0605 118.625L32.5905 123.152L31.1335 127.715L31.6952 130.28Z" fill="black"/>
<path d="M33.0809 126.516C33.9314 124.438 37.3073 120.982 39.3775 120.114C41.3915 119.27 46.1719 119.113 48.1126 120.114C50.165 121.173 52.7619 125.443 53.4641 127.644C53.7229 128.454 53.6477 130.409 53.5618 131.698L109.802 132.29C109.684 130.727 109.606 128.571 109.973 127.673C110.824 125.596 114.2 122.139 116.27 121.271C118.284 120.427 123.064 120.27 125.005 121.271C127.057 122.331 129.654 126.601 130.356 128.801C130.525 129.331 130.552 130.353 130.526 131.356C130.946 131.041 131.328 130.67 131.649 130.238L132.178 129.523C132.883 128.572 133.264 127.419 133.264 126.234V124.38C133.264 123.369 132.986 122.377 132.462 121.513L131.11 119.287V104.2C131.11 103.457 130.96 102.722 130.669 102.038L125.266 89.3347C124.425 87.3587 122.517 86.0485 120.371 85.9759C114.57 85.7799 103.182 85.4371 98.5572 85.594C91.8327 85.822 73.7968 87.6612 68.4225 88.2202C67.4272 88.3236 66.4943 88.745 65.7575 89.4218L49.7911 104.087L33.9477 111.005C32.5991 111.594 31.6081 112.786 31.2756 114.22L29.7772 120.681L29.2825 121.328C28.5441 122.294 28.2128 123.51 28.3591 124.717L28.6642 127.231C28.8094 128.426 29.4113 129.518 30.3438 130.278L30.5406 130.439C31.2284 130.999 32.0599 131.346 32.9343 131.45C32.8043 129.877 32.6876 127.476 33.0809 126.516Z" fill="#407BFF"/>
<path d="M43.0141 138.925C47.7886 138.925 51.6591 135.055 51.6591 130.28C51.6591 125.506 47.7886 121.635 43.0141 121.635C38.2396 121.635 34.3691 125.506 34.3691 130.28C34.3691 135.055 38.2396 138.925 43.0141 138.925Z" fill="#263238"/>
<path opacity="0.5" d="M43.0139 136.304C46.3405 136.304 49.0372 133.607 49.0372 130.28C49.0372 126.954 46.3405 124.257 43.0139 124.257C39.6872 124.257 36.9905 126.954 36.9905 130.28C36.9905 133.607 39.6872 136.304 43.0139 136.304Z" fill="white"/>
<g opacity="0.5">
<path d="M40.7972 128.298L40.3765 127.044C40.1808 126.461 39.4193 126.288 39.0119 126.75C38.5483 127.276 38.1869 127.894 37.9582 128.573C37.7606 129.159 38.2884 129.736 38.8949 129.614L40.1892 129.351C40.6668 129.254 40.9522 128.76 40.7972 128.298Z" fill="black"/>
<path d="M43.6224 127.369L44.4987 126.377C44.9057 125.917 44.6766 125.173 44.0746 125.049C43.7323 124.978 43.3777 124.941 43.0144 124.941C42.6508 124.941 42.2966 124.978 41.9542 125.049C41.3523 125.173 41.1236 125.917 41.5302 126.377L42.4064 127.369C42.7291 127.734 43.2994 127.734 43.6224 127.369Z" fill="black"/>
<path d="M45.8393 129.351L47.1336 129.614C47.7397 129.736 48.2675 129.159 48.0703 128.573C47.8416 127.894 47.4802 127.275 47.0166 126.75C46.6092 126.288 45.8477 126.461 45.652 127.044L45.2317 128.298C45.0759 128.761 45.3613 129.255 45.8393 129.351Z" fill="black"/>
<path d="M45.2315 132.263L45.6518 133.517C45.8475 134.1 46.609 134.273 47.0164 133.811C47.48 133.286 47.8414 132.668 48.0701 131.989C48.2674 131.403 47.7395 130.825 47.1334 130.948L45.8392 131.21C45.3615 131.307 45.0761 131.8 45.2315 132.263Z" fill="black"/>
<path d="M42.406 133.192L41.5297 134.184C41.1231 134.644 41.3518 135.388 41.9538 135.512C42.2961 135.583 42.6507 135.62 43.014 135.62C43.3772 135.62 43.7318 135.583 44.0742 135.512C44.6761 135.388 44.9048 134.644 44.4982 134.184L43.622 133.192C43.2993 132.826 42.729 132.826 42.406 133.192Z" fill="black"/>
<path d="M40.1885 131.21L38.8943 130.947C38.2882 130.825 37.7603 131.402 37.9576 131.988C38.1863 132.667 38.5477 133.286 39.0113 133.811C39.4187 134.273 40.1802 134.1 40.3759 133.517L40.7965 132.263C40.952 131.8 40.6666 131.307 40.1885 131.21Z" fill="black"/>
</g>
<g opacity="0.5">
<path d="M42.2329 129.905C42.4572 129.905 42.6391 129.724 42.6391 129.499C42.6391 129.275 42.4572 129.093 42.2329 129.093C42.0085 129.093 41.8267 129.275 41.8267 129.499C41.8267 129.724 42.0085 129.905 42.2329 129.905Z" fill="white"/>
<path d="M44.2016 129.499C44.2016 129.723 44.0196 129.905 43.7954 129.905C43.5712 129.905 43.3892 129.723 43.3892 129.499C43.3892 129.275 43.5712 129.093 43.7954 129.093C44.0196 129.093 44.2016 129.275 44.2016 129.499Z" fill="white"/>
<path d="M42.6391 131.062C42.6391 131.286 42.4571 131.468 42.2329 131.468C42.0087 131.468 41.8267 131.286 41.8267 131.062C41.8267 130.838 42.0087 130.656 42.2329 130.656C42.4571 130.656 42.6391 130.837 42.6391 131.062Z" fill="white"/>
<path d="M44.2016 131.062C44.2016 131.286 44.0196 131.468 43.7954 131.468C43.5712 131.468 43.3892 131.286 43.3892 131.062C43.3892 130.838 43.5712 130.656 43.7954 130.656C44.0196 130.656 44.2016 130.837 44.2016 131.062Z" fill="white"/>
</g>
<path d="M120.48 138.925C125.254 138.925 129.125 135.055 129.125 130.28C129.125 125.506 125.254 121.635 120.48 121.635C115.705 121.635 111.835 125.506 111.835 130.28C111.835 135.055 115.705 138.925 120.48 138.925Z" fill="#263238"/>
<path opacity="0.5" d="M120.481 136.304C123.807 136.304 126.504 133.607 126.504 130.28C126.504 126.954 123.807 124.257 120.481 124.257C117.154 124.257 114.457 126.954 114.457 130.28C114.457 133.607 117.154 136.304 120.481 136.304Z" fill="white"/>
<g opacity="0.5">
<path d="M118.263 128.298L117.843 127.044C117.647 126.461 116.885 126.288 116.478 126.75C116.015 127.276 115.653 127.894 115.424 128.573C115.227 129.159 115.755 129.736 116.361 129.614L117.655 129.351C118.133 129.254 118.419 128.76 118.263 128.298Z" fill="black"/>
<path d="M121.089 127.369L121.966 126.377C122.372 125.917 122.144 125.173 121.542 125.049C121.199 124.978 120.845 124.941 120.481 124.941C120.118 124.941 119.764 124.978 119.421 125.049C118.819 125.173 118.591 125.917 118.997 126.377L119.873 127.369C120.196 127.734 120.766 127.734 121.089 127.369Z" fill="black"/>
<path d="M123.307 129.351L124.6 129.614C125.207 129.736 125.734 129.159 125.537 128.573C125.308 127.894 124.947 127.275 124.483 126.75C124.076 126.288 123.315 126.461 123.119 127.044L122.698 128.298C122.543 128.761 122.829 129.255 123.307 129.351Z" fill="black"/>
<path d="M122.698 132.263L123.119 133.517C123.315 134.1 124.076 134.273 124.484 133.811C124.947 133.286 125.309 132.668 125.537 131.989C125.735 131.403 125.207 130.825 124.601 130.948L123.307 131.21C122.828 131.307 122.543 131.8 122.698 132.263Z" fill="black"/>
<path d="M119.873 133.192L118.996 134.184C118.59 134.644 118.818 135.388 119.42 135.512C119.763 135.583 120.117 135.62 120.481 135.62C120.844 135.62 121.198 135.583 121.541 135.512C122.143 135.388 122.371 134.644 121.965 134.184L121.089 133.192C120.766 132.826 120.196 132.826 119.873 133.192Z" fill="black"/>
<path d="M117.655 131.21L116.361 130.947C115.755 130.825 115.227 131.402 115.424 131.988C115.653 132.667 116.014 133.286 116.478 133.811C116.885 134.273 117.647 134.1 117.843 133.517L118.263 132.263C118.419 131.8 118.133 131.307 117.655 131.21Z" fill="black"/>
</g>
<g opacity="0.5">
<path d="M120.106 129.499C120.106 129.723 119.924 129.905 119.7 129.905C119.475 129.905 119.293 129.723 119.293 129.499C119.293 129.275 119.475 129.093 119.7 129.093C119.924 129.093 120.106 129.275 120.106 129.499Z" fill="white"/>
<path d="M121.262 129.905C121.487 129.905 121.668 129.724 121.668 129.499C121.668 129.275 121.487 129.093 121.262 129.093C121.038 129.093 120.856 129.275 120.856 129.499C120.856 129.724 121.038 129.905 121.262 129.905Z" fill="white"/>
<path d="M120.106 131.062C120.106 131.286 119.924 131.468 119.7 131.468C119.475 131.468 119.293 131.286 119.293 131.062C119.293 130.838 119.475 130.656 119.7 130.656C119.924 130.656 120.106 130.837 120.106 131.062Z" fill="white"/>
<path d="M121.668 131.062C121.668 131.286 121.486 131.468 121.262 131.468C121.038 131.468 120.856 131.286 120.856 131.062C120.856 130.838 121.038 130.656 121.262 130.656C121.486 130.656 121.668 130.837 121.668 131.062Z" fill="white"/>
</g>
<path d="M65.2954 91.8823C65.9084 91.3191 65.9521 90.3702 65.3992 89.7512L49.7911 104.088L49.3354 104.287C49.3639 104.325 49.3875 104.365 49.4202 104.4C49.9883 105.018 50.9497 105.059 51.5679 104.491L65.2954 91.8823Z" fill="#263238"/>
<path opacity="0.5" d="M31.8686 121.636C31.7664 121.636 31.6862 121.547 31.6964 121.446L32.4169 114.056C32.4276 113.946 32.5381 113.874 32.6434 113.909L33.3073 114.127C34.1269 114.397 34.611 115.242 34.4286 116.085L33.5166 120.306C33.3491 121.081 32.6624 121.636 31.8686 121.636Z" fill="white"/>
<g opacity="0.2">
<path d="M35.984 116.754C35.9779 116.44 36.228 116.179 36.543 116.173L126.856 114.422C127.171 114.416 127.431 114.666 127.437 114.981C127.443 115.296 127.193 115.556 126.878 115.562L36.5646 117.313C36.25 117.319 35.9901 117.069 35.984 116.754Z" fill="white"/>
</g>
<path d="M92.9954 106.079L109.802 105.788C111.624 105.757 113.003 104.13 112.736 102.328L111.06 91.0223C110.962 90.3604 110.401 89.866 109.732 89.8504C106.818 89.7832 103.896 89.7341 101.573 89.7341C100.453 89.7341 99.4728 89.7455 98.6988 89.7721C97.1875 89.8234 94.7825 89.9952 91.9754 90.2289C91.2998 90.2851 90.7648 90.8266 90.718 91.503L89.9322 102.852C89.8098 104.618 91.2257 106.109 92.9954 106.079Z" fill="#263238"/>
<path d="M126.722 103.436L121.42 90.9714C121.215 90.4911 120.753 90.1723 120.232 90.1548C119.299 90.1233 118.115 90.0845 116.777 90.0431C115.921 90.0169 115.249 90.7708 115.374 91.6174L117.066 103.036C117.288 104.535 118.588 105.637 120.104 105.611L125.289 105.521C125.982 105.509 126.625 105.064 126.796 104.392C126.877 104.069 126.848 103.734 126.722 103.436Z" fill="#263238"/>
<path d="M84.9725 90.8555C78.8195 91.435 72.5708 92.0818 69.9127 92.3603C69.0501 92.4508 68.2414 92.8163 67.6027 93.4027L58.2813 101.964C56.4542 103.643 57.6717 106.689 60.152 106.646L82.7426 106.255C84.3082 106.228 85.5934 105.008 85.7013 103.446L86.4716 92.3174C86.5305 91.4723 85.8164 90.7761 84.9725 90.8555Z" fill="#263238"/>
<path d="M110.77 109.021L106.843 109.097C106.533 109.103 106.284 109.357 106.284 109.667C106.284 109.986 106.547 110.243 106.865 110.237L110.792 110.161C111.102 110.155 111.351 109.902 111.351 109.591C111.351 109.272 111.089 109.015 110.77 109.021Z" fill="#263238"/>
<path d="M83.2306 110.136C83.2306 109.817 82.9688 109.56 82.6496 109.566L78.723 109.642C78.4126 109.648 78.1641 109.902 78.1641 110.212C78.1641 110.532 78.4263 110.788 78.7451 110.782L82.6716 110.706C82.9821 110.7 83.2306 110.447 83.2306 110.136Z" fill="#263238"/>
<g opacity="0.2">
<path d="M33.0807 126.516C33.3714 125.806 33.9608 124.934 34.6885 124.061L29.9347 124.153C29.2572 124.166 28.6758 123.748 28.4402 123.153C28.3277 123.662 28.295 124.19 28.3592 124.717L28.6644 127.231C28.8095 128.426 29.4115 129.518 30.344 130.278L30.5408 130.439C31.2286 130.999 32.06 131.346 32.9344 131.45C32.8041 129.877 32.6874 127.476 33.0807 126.516Z" fill="black"/>
<path d="M109.802 132.29C109.684 130.727 109.606 128.571 109.973 127.673C110.587 126.174 112.515 123.961 114.319 122.517L51.4797 123.735C52.3887 125.131 53.135 126.614 53.4641 127.644C53.7229 128.454 53.6476 130.409 53.5618 131.698L109.802 132.29Z" fill="black"/>
<path d="M130.356 128.801C130.526 129.331 130.552 130.352 130.526 131.356C130.946 131.04 131.329 130.67 131.649 130.238L132.178 129.523C132.883 128.571 133.264 127.418 133.264 126.234V124.38C133.264 123.368 132.986 122.377 132.462 121.513L131.986 120.729C131.932 121.538 131.275 122.187 130.449 122.203L126.312 122.283C128.041 123.996 129.798 127.051 130.356 128.801Z" fill="black"/>
</g>
<g opacity="0.2">
<path d="M57.0106 126.97C57.0027 126.55 57.3363 126.203 57.7558 126.195L106.151 125.257C106.571 125.249 106.918 125.583 106.926 126.002C106.934 126.422 106.6 126.769 106.18 126.777L57.7855 127.715C57.3656 127.723 57.0186 127.389 57.0106 126.97Z" fill="white"/>
</g>
<path opacity="0.6" d="M60.9375 99.5252L58.2813 101.965C56.4542 103.643 57.6718 106.689 60.1516 106.646L60.9375 106.633V99.5252Z" fill="black"/>
<path d="M64.5718 100.161H63.2288C62.5578 100.161 62.014 100.705 62.014 101.376V103.244L59.7689 103.679C59.4912 103.733 59.2905 103.975 59.2905 104.258V104.79C59.2905 105.205 59.7074 105.49 60.0942 105.341L62.2264 104.515C62.4943 104.911 62.9815 105.14 63.4922 105.026L64.7587 104.744C65.1532 104.657 65.4336 104.307 65.4336 103.903V101.024C65.434 100.547 65.0479 100.161 64.5718 100.161Z" fill="#407BFF"/>
</g>
<defs>
<clipPath id="clip0_917_6860">
<rect width="190" height="190" fill="white" transform="translate(0.5 -20)"/>
</clipPath>
</defs>
</svg>
