<svg width="16" height="16" viewBox="0 0 16 16" fill="none" xmlns="http://www.w3.org/2000/svg">
<g clip-path="url(#clip0_1900_132)">
<path d="M15.5031 4.32192L11.7406 0.559424C11.4937 0.312549 11.0968 0.312549 10.8499 0.559424L7.09055 4.32192C6.84368 4.5688 6.84368 4.96567 7.09055 5.21255C7.33743 5.45942 7.7343 5.45942 7.98118 5.21255L10.6593 2.53442V13.5594C10.6593 13.9125 10.9437 14.1969 11.2968 14.1969C11.6499 14.1969 11.9343 13.9125 11.9343 13.5594V2.53442L14.6124 5.21255C14.8593 5.45942 15.2562 5.45942 15.5031 5.21255C15.7499 4.9688 15.7499 4.5688 15.5031 4.32192Z" fill="#717484"/>
<path d="M8.9718 10.8501C8.72493 10.6032 8.32805 10.6032 8.08118 10.8501L5.40305 13.5282V2.50322C5.40305 2.1501 5.11868 1.86572 4.76555 1.86572C4.41243 1.86572 4.12805 2.1501 4.12805 2.50322V13.5282L1.44993 10.8501C1.20305 10.6032 0.806177 10.6032 0.559302 10.8501C0.312427 11.097 0.312427 11.4938 0.559302 11.7407L4.3218 15.5032C4.56868 15.7501 4.96555 15.7501 5.21243 15.5032L8.97493 11.7407C9.21868 11.4938 9.21868 11.0938 8.9718 10.8501Z" fill="#717484"/>
</g>
<defs>
<clipPath id="clip0_1900_132">
<rect width="16" height="16" fill="white"/>
</clipPath>
</defs>
</svg>
