<svg width="24" height="24" viewBox="0 0 24 24" fill="none" xmlns="http://www.w3.org/2000/svg">
<path d="M23.3542 10.44L13.5642 0.65C13.1442 0.23 12.5892 0 11.9992 0C11.4092 0 10.8542 0.23 10.4342 0.645L0.649162 10.435C0.644162 10.44 0.644162 10.44 0.639162 10.445C-0.215838 11.305 -0.215838 12.705 0.644162 13.565C1.03916 13.96 1.55416 14.185 2.10916 14.21C2.13416 14.21 2.15416 14.215 2.17916 14.215H2.56916V21.42C2.56916 22.845 3.72916 24.005 5.15416 24.005H8.98416C9.37416 24.005 9.68916 23.69 9.68916 23.3V17.65C9.68916 17 10.2192 16.47 10.8692 16.47H13.1292C13.7792 16.47 14.3092 17 14.3092 17.65V23.3C14.3092 23.69 14.6242 24.005 15.0142 24.005H18.8442C20.2692 24.005 21.4292 22.845 21.4292 21.42V14.21H21.7892C22.3792 14.21 22.9342 13.98 23.3542 13.565C24.2142 12.705 24.2142 11.3 23.3542 10.44Z" fill="currentColor"/>
</svg>
