<svg width="20" height="20" viewBox="0 0 20 20" fill="none" xmlns="http://www.w3.org/2000/svg">
<path d="M16.255 6.63337C15.6607 8.95223 14.454 11.0687 12.7614 12.7614C11.0687 14.4541 8.95219 15.6607 6.63334 16.255C4.84918 16.7092 3.33334 15.175 3.33334 13.3334V12.5C3.33334 12.04 3.70751 11.6709 4.16501 11.625C4.92378 11.5503 5.66859 11.3711 6.37834 11.0925L7.64501 12.3592C9.70744 11.3706 11.3706 9.70747 12.3592 7.64504L11.0925 6.37837C11.3713 5.66866 11.5508 4.92385 11.6258 4.16504C11.6708 3.70671 12.04 3.33337 12.5 3.33337H13.3333C15.175 3.33337 16.7092 4.84921 16.255 6.63337Z" stroke="black" stroke-width="1.5" stroke-linecap="round" stroke-linejoin="round"/>
</svg>
