<svg width="16" height="16" viewBox="0 0 16 16" fill="none" xmlns="http://www.w3.org/2000/svg">
<path d="M14.2666 9.50004L9.49998 14.2667C9.36665 14.4 9.21665 14.5 9.04998 14.5667C8.88331 14.6334 8.71665 14.6667 8.54998 14.6667C8.38331 14.6667 8.21665 14.6334 8.04998 14.5667C7.88331 14.5 7.73331 14.4 7.59998 14.2667L1.71665 8.38337C1.59442 8.26115 1.49998 8.1196 1.43331 7.95871C1.36665 7.79782 1.33331 7.62826 1.33331 7.45004V2.66671C1.33331 2.30004 1.46398 1.98626 1.72531 1.72537C1.98665 1.46449 2.30042 1.33382 2.66665 1.33337H7.44998C7.62776 1.33337 7.79998 1.3696 7.96665 1.44204C8.13331 1.51449 8.27776 1.6116 8.39998 1.73337L14.2666 7.61671C14.4 7.75004 14.4973 7.90004 14.5586 8.06671C14.62 8.23337 14.6504 8.40004 14.65 8.56671C14.6495 8.73337 14.6191 8.89737 14.5586 9.05871C14.4982 9.22004 14.4009 9.36715 14.2666 9.50004ZM8.54998 13.3334L13.3166 8.56671L7.43331 2.66671H2.66665V7.43337L8.54998 13.3334ZM4.33331 5.33337C4.61109 5.33337 4.84731 5.23626 5.04198 5.04204C5.23665 4.84782 5.33376 4.6116 5.33331 4.33337C5.33287 4.05515 5.23576 3.81915 5.04198 3.62537C4.8482 3.4316 4.61198 3.33426 4.33331 3.33337C4.05465 3.33248 3.81865 3.42982 3.62531 3.62537C3.43198 3.82093 3.33465 4.05693 3.33331 4.33337C3.33198 4.60982 3.42931 4.84604 3.62531 5.04204C3.82131 5.23804 4.05731 5.33515 4.33331 5.33337Z" fill="currentColor"/>
</svg>
