<svg width="20" height="20" viewBox="0 0 20 20" fill="none" xmlns="http://www.w3.org/2000/svg">
<path d="M13.1075 3.2367C14.3025 2.0367 16.0508 2.0117 17.0183 2.98337C17.9883 3.9567 17.9625 5.7167 16.7658 6.9167L14.7466 8.9442C14.6329 9.06223 14.5702 9.2202 14.5718 9.38408C14.5735 9.54796 14.6394 9.70463 14.7555 9.82035C14.8715 9.93607 15.0284 10.0016 15.1923 10.0028C15.3561 10.004 15.5139 9.94073 15.6316 9.8267L17.6516 7.7992C19.2441 6.20003 19.4441 3.64753 17.9041 2.10087C16.3625 0.553367 13.815 0.755033 12.2208 2.3542L8.18248 6.41003C6.58998 8.0092 6.38998 10.5617 7.92998 12.1075C7.98749 12.1673 8.05635 12.2151 8.13252 12.248C8.20869 12.281 8.29065 12.2984 8.37363 12.2993C8.45661 12.3002 8.53893 12.2846 8.61581 12.2533C8.69268 12.2221 8.76257 12.1758 8.82138 12.1173C8.8802 12.0588 8.92677 11.9891 8.95837 11.9124C8.98998 11.8357 9.00599 11.7534 9.00547 11.6704C9.00495 11.5874 8.98792 11.5054 8.95535 11.4291C8.92279 11.3527 8.87535 11.2837 8.81581 11.2259C7.84581 10.2525 7.87248 8.49253 9.06831 7.29253L13.1075 3.2367Z" fill="black"/>
<path d="M12.0708 7.89172C11.9537 7.77425 11.7947 7.70812 11.6288 7.70789C11.4629 7.70765 11.3037 7.77333 11.1862 7.89046C11.0688 8.0076 11.0026 8.16661 11.0024 8.3325C11.0022 8.49839 11.0678 8.65758 11.185 8.77505C12.155 9.74838 12.1291 11.5075 10.9325 12.7084L6.89331 16.7634C5.69748 17.9634 3.94914 17.9884 2.98164 17.0167C2.01164 16.0434 2.03831 14.2834 3.23414 13.0834L5.25414 11.0559C5.31209 10.9977 5.35801 10.9287 5.38929 10.8528C5.42056 10.7769 5.43658 10.6956 5.43643 10.6135C5.43627 10.5314 5.41995 10.4501 5.38838 10.3743C5.35682 10.2985 5.31064 10.2297 5.25248 10.1717C5.19431 10.1138 5.1253 10.0678 5.04939 10.0366C4.97348 10.0053 4.89215 9.98928 4.81005 9.98943C4.72794 9.98959 4.64668 10.0059 4.57088 10.0375C4.49509 10.069 4.42625 10.1152 4.36831 10.1734L2.34831 12.2009C0.755809 13.8009 0.555809 16.3525 2.09581 17.8992C3.63748 19.4475 6.18498 19.245 7.77914 17.6459L11.8183 13.59C13.4108 11.9917 13.6108 9.43755 12.0708 7.89172Z" fill="black"/>
</svg>
