<svg width="12" height="11" viewBox="0 0 12 11" fill="none" xmlns="http://www.w3.org/2000/svg">
<path d="M11.7898 4.34605C11.8458 4.21561 11.8605 4.07209 11.8319 3.93362C11.8033 3.79516 11.7327 3.66798 11.6291 3.56818L7.92727 0L6.88038 1.00908L9.31843 3.35909H8.57747e-05V4.78636H11.1057C11.2521 4.7864 11.3953 4.74459 11.517 4.66621C11.6388 4.58784 11.7337 4.47642 11.7898 4.34605ZM0.0563543 6.65395C0.00030449 6.78438 -0.0143484 6.92791 0.01425 7.06638C0.0428484 7.20484 0.113413 7.33202 0.217015 7.43181L3.91888 11L4.96577 9.99092L2.52772 7.64091H11.8461V6.21364H0.74046C0.594017 6.21351 0.45083 6.25528 0.329043 6.33367C0.207256 6.41205 0.112351 6.52352 0.0563543 6.65395Z" fill="currentColor"/>
</svg>
